<svg xmlns="http://www.w3.org/2000/svg" width="491" height="508" fill-rule="evenodd" xmlns:v="https://vecta.io/nano"><path d="M246 32.341c-10.944 3.259-17.614 7.217-25.5 15.133-7.96 7.989-14.542 19.596-16.522 29.131-.731 3.523-1.033 10.548-.766 17.852.375 10.277.91 13.396 3.651 21.27 4.96 14.252 7.799 19.138 27.273 46.946 2.549 3.641 5.193 8.466 5.876 10.723 2.458 8.13.603 34.549-3.24 46.155-1.236 3.731-1.46 3.874-7.891 5.057-14.963 2.752-21.858 10.028-21.875 23.085-.011 7.618-2.402 7.307 56.193 7.307h51.755l1.649-2.518c1.269-1.936 1.493-3.703.968-7.656-.87-6.563-2.476-9.604-7.435-14.085-4.356-3.935-9.308-5.727-15.851-5.735-5.39-.008-5.99-1.11-8.405-15.424-3.129-18.558-2.257-33.156 2.534-42.418.95-1.835 6.36-10.16 12.024-18.5 11.085-16.324 16.066-25.836 19.722-37.664 1.935-6.26 2.312-9.65 2.278-20.5-.035-11.069-.389-13.957-2.384-19.443-7.134-19.617-23.203-34.474-42.698-39.48-8.934-2.293-22.173-1.971-31.356.764m2 1.163c-7.364 2.013-18.964 7.917-23.964 12.197-7.209 6.17-14.286 17.409-18.136 28.799-2.076 6.141-1.794 26.393.487 35 2.453 9.257 10.124 25.075 16.974 35C242.603 172.384 243 173.235 243 186.674c0 9.34-3.247 30.589-5.498 35.976-1.179 2.821-1.911 3.35-4.635 3.35-1.78 0-5.935.757-9.235 1.683-10.67 2.994-15.525 10.158-14.462 21.343l.33 3.474h53 53l-.067-6.506c-.113-10.997-6.077-16.964-19.154-19.161-7.216-1.212-7.63-1.428-8.992-4.689-4.402-10.535-6.066-39.305-2.843-49.144 2.137-6.521 3.586-9.021 13.63-23.5 15.441-22.26 20.569-33.673 22.853-50.86 2.479-18.658-2.911-35.389-15.743-48.873C293.841 37.848 282.564 32.97 265 32.384c-8.172-.272-13.092.052-17 1.12m5.024 19.036c-14.959 4.193-25.712 16.005-29.004 31.861-2.907 14.008 4.007 30.553 16.309 39.026 6.323 4.354 15.951 7.573 22.655 7.573 7.057 0 17.015-3.445 23.195-8.023 11.579-8.579 18.485-24.977 15.935-37.836-2.735-13.789-13.054-26.73-24.828-31.135-7.606-2.846-17.26-3.429-24.262-1.466m-2.469 2.512c-7.544 2.669-13.806 7.16-18.054 12.946-5.643 7.689-7.005 12.279-6.97 23.502.028 8.888.344 10.645 2.845 15.797 1.548 3.189 4.942 7.914 7.542 10.5 4.536 4.512 12.001 9.252 14.427 9.159.635-.025-.645-.985-2.845-2.136-12.869-6.728-21.5-20.251-21.5-33.686 0-15.837 11.743-31.272 27.066-35.572 22.344-6.271 44.812 9.585 46.687 32.949 1.257 15.664-8.4 30.865-23.575 37.106-3.123 1.285-5.003 2.346-4.178 2.358 3.256.05 14.216-6.121 18.259-10.28 7.823-8.049 11.166-17.304 10.582-29.293-.688-14.13-8.454-25.518-21.595-31.668-8.901-4.165-19.857-4.807-28.691-1.682m1.945 2.006c-10.08 2.95-20.104 12.837-23.26 22.942-6.454 20.663 5.625 41.16 26.863 45.589 6.586 1.373 8.028 1.372 14.123-.004 21.068-4.758 33.168-25.891 26.416-46.138-3.333-9.994-13.48-19.64-23.628-22.46-4.255-1.182-16.375-1.14-20.514.071m7.843 11.978c-.582 2.911-.798 3.025-5.225 2.75-4.129-.256-4.652-.048-4.937 1.962-.237 1.668.37 2.511 2.351 3.264 1.803.686 2.48 1.514 2.084 2.547C254.02 81.112 250 96.915 250 97.705c0 .236-.836.164-1.859-.16-2.225-.706-4.448 1.622-3.961 4.149.207 1.079 1.533 2.005 3.332 2.33 2.733.493 2.964.846 2.709 4.139-.201 2.606.179 3.777 1.377 4.236 2.083.8 4.402-1.056 4.402-3.521 0-1.033.45-1.878 1-1.878s1 1.575 1 3.5.188 3.5.418 3.5 1.085.256 1.9.569c1.037.398 1.835-.503 2.659-3 1.011-3.063 1.513-3.484 3.547-2.974 3.634.912 8.855-1.274 10.765-4.507 2.106-3.565 2.215-8.425.225-10.076-1.3-1.079-1.238-1.547.5-3.757C279.106 88.866 280 86.502 280 85c0-3.087-3.132-7.59-5.888-8.464-1.375-.437-1.808-1.51-1.724-4.276.151-4.965-2.928-5.878-4.511-1.338-1.361 3.905-3.327 4.078-2.556.224.589-2.946-.713-5.146-3.046-5.146-.729 0-1.598 1.366-1.932 3.036m.763 2.091c-1.123 3.221-1.373 3.274-8.043 1.686-.722-.172-1.519.25-1.771.937s.199 1.25 1.002 1.25 2.045.704 2.76 1.565c1.071 1.291.988 2.82-.476 8.75-3.199 12.958-3.462 13.536-6.308 13.874-3.905.464-3.848 2.48.09 3.219 3.822.717 5.152 2.767 3.634 5.604-.69 1.288-.654 2.08.115 2.555 1.306.808 2.854-1.285 2.876-3.887.011-1.311.643-1.73 2.265-1.5 1.94.276 2.21.836 1.957 4.07-.367 4.692 1.3 4.866 3.194.334 1.341-3.211 1.658-3.386 5.263-2.905 2.922.389 4.473.009 6.509-1.596 3.425-2.7 4.605-7.566 2.421-9.979-1.757-1.941-2.147-5.104-.629-5.104 1.651 0 3.235-4.067 2.588-6.646-.342-1.361-2.213-3.401-4.19-4.567-3.219-1.899-3.519-2.439-3.031-5.448.703-4.332-1.701-4.588-3.182-.339-.575 1.65-1.429 3-1.898 3-1.891 0-3.113-2.445-2.573-5.146.776-3.879-1.199-3.67-2.573.273m1.093 8.575c-1.883 3.67-2.35 7.586-1.007 8.438 1.967 1.247 8.243 1.025 9.608-.34 1.934-1.934 1.393-5.632-1.05-7.173-4.084-2.575-6.549-2.877-7.551-.925m.408 1.88c-1.294 3.371-.614 5.378 2.048 6.046 5.57 1.398 8.375-3.527 3.457-6.07-3.789-1.959-4.746-1.955-5.505.024m-4.522 13.05c-1.539 5.542-1.386 6.303 1.48 7.393 5.701 2.167 11.435.071 11.435-4.179 0-2.407-4.417-5.877-8.277-6.504-3.444-.558-3.6-.448-4.638 3.29m1.904-1.119c-.623.751-.988 2.631-.811 4.177.288 2.51.758 2.842 4.408 3.11 5.271.386 7.592-1.841 4.955-4.755-2.603-2.876-7.149-4.222-8.552-2.532m.779 35.212c1.797.222 4.497.218 6-.01s.032-.411-3.268-.405-4.529.192-2.732.415m-120.35 132.244c-3.489 1.411-7.259 6.781-7.923 11.286-.345 2.335-.485 14.275-.311 26.533.262 18.483.572 22.449 1.816 23.235 2.393 1.51 255.286 1.291 256.8-.223.868-.868 1.2-7.992 1.2-25.766 0-27.867-.398-29.637-7.604-33.768l-3.896-2.233-119 .047-121.082.889m-1.104 2.981c-1.753 1.069-3.673 2.852-4.267 3.963-.715 1.335-.991 10.596-.814 27.303l.267 25.284h128 128l.258-23.5c.29-26.357-.118-28.363-6.656-32.73l-3.398-2.27-119.102.004c-116.169.003-119.18.051-122.288 1.946M144 330.892c-2.371.657-2.515 1.112-2.789 8.8-.263 7.383-.07 8.361 2.163 10.957l2.452 2.851 114.73.5 117.594-.705c1.576-.663 3.312-2.379 3.858-3.815 1.406-3.7 1.258-16.814-.208-18.28-.921-.921-28.433-1.177-118.25-1.1l-119.55.792m-.329 1.771c-.369.369-.671 3.953-.671 7.965 0 12.464-6.63 11.369 68.939 11.388l114.1.634 49.539.617 2.906-2.499c2.739-2.356 2.908-2.952 2.961-10.384l.055-7.884-118.579-.254c-65.219-.14-118.881.048-119.25.417m-52.206 38.81c-13.52 4.274-25.191 14.444-31.24 27.226-3.614 7.634-3.693 8.058-3.709 19.801-.013 9.506.386 13.039 1.92 17 5.79 14.958 18.33 26.838 32.669 30.95 4.86 1.394 11.862 1.571 52.715 1.329 56.598-.335 54.319.208 44.082-10.503-3.561-3.727-7.435-8.126-8.607-9.776l-2.132-3-39.332-.5c-38.608-.491-39.417-.543-44.037-2.818-6.294-3.1-10.396-8.006-12.369-14.793-3.551-12.215 1.051-23.283 12.003-28.867l5.929-3.022 41.071-.243c46.349-.274 47.5-.13 55.13 6.903 6.13 5.65 8.848 12.591 8.094 20.667-.819 8.764 1.839 13.408 10.048 17.556 6.938 3.505 10.056 1.652 12.683-7.537 6.913-24.176-7.594-50.854-32.383-59.556-6.422-2.254-7.053-2.28-52.5-2.187-34.289.071-47.027.419-50.035 1.37m121.142-.605c-6.198 1.354-5.652 3.213 3.959 13.49l8.934 9.553 29 .209c53.367.386 52.974.331 60.449 8.44 5.369 5.825 6.051 7.885 6.051 18.277 0 8.26.159 8.9 3.097 12.464 5.581 6.771 15.054 9.89 17.61 5.797 2.108-3.376 4.293-13.713 4.293-20.311 0-16.456-10.484-34.282-25-42.506-10.665-6.043-13.167-6.293-61.644-6.163l-46.749.75m117.405.438c-1.918.657-3.606 1.869-3.752 2.694s3.732 5.663 8.617 10.75l8.88 9.25h37.084c34.526 0 37.449.137 42.383 1.982 12.251 4.584 18.763 16.568 15.773 29.029-1.758 7.33-5.799 12.234-13.078 15.872L419.681 444l-42.091-.022c-46.664-.024-45.908.072-53.779-6.839-5.548-4.872-8.163-12.027-7.528-20.601.65-8.774-1.185-12.294-8.64-16.569-6.032-3.46-8.673-3.699-11.111-1.004-4.107 4.537-5.829 22.575-3.125 32.729 4.102 15.409 17.029 29.063 32.425 34.249 5.814 1.959 8.324 2.057 52.599 2.057 45.162 0 46.66-.062 52.281-2.156 24.305-9.056 38.013-34.274 31.736-58.384-4.483-17.221-17.651-30.959-34.38-35.867-4.625-1.357-12.044-1.585-50-1.537-31.782.041-45.569.399-48.056 1.25m-239.574 2.729c-7.849 2.489-17.123 8.524-21.72 14.133-2.003 2.445-5.122 7.57-6.93 11.389-3.172 6.698-3.288 7.384-3.286 19.443.001 10.755.325 13.303 2.322 18.252 4.702 11.653 16.259 22.523 28.399 26.712 5.857 2.021 8.718 2.201 42.777 2.691 33.015.476 58.018-.34 59.624-1.945.333-.334-3.15-4.68-7.741-9.658L175.535 446h-37.089c-43.138 0-43.661-.085-52.011-8.435-4.225-4.224-5.387-6.209-6.892-11.766-1.528-5.649-1.626-7.413-.628-11.377 2.484-9.866 7.137-15.704 15.585-19.555 3.675-1.675 7.533-1.823 47.5-1.823 49.489 0 47.93-.234 55.826 8.365 5.906 6.432 7.174 9.954 7.174 19.924 0 7.009.346 8.837 2.095 11.06 2.519 3.202 8.872 6.607 12.33 6.607 3.156 0 4.191-1.929 6.172-11.506 4.577-22.135-8.997-44.846-31.885-53.345-5.618-2.086-7.119-2.147-51.5-2.093-42.235.052-46.173.203-51.774 1.979m122.812-1.312c-1.787.222-3.25.919-3.25 1.55s1.932 2.964 4.293 5.187 5.877 5.934 7.812 8.25l3.518 4.21 38.938.633c38.661.628 38.976.65 44.147 3.093 5.687 2.686 10.793 8.302 12.892 14.179.722 2.021 1.332 7.287 1.356 11.702.05 9.145 1.017 11.168 7.202 15.073 2.615 1.65 5.079 2.41 7.164 2.208 2.832-.274 3.364-.853 4.884-5.308 2.107-6.174 2.31-19.974.399-27.15-4.143-15.56-18.807-29.622-34.717-33.289-4.16-.96-87.241-1.256-94.638-.338m118.25-.01c-3.906.94-4.004 2.247-.392 5.224 1.943 1.602 5.412 5.348 7.709 8.325l4.176 5.414 39.061.672c42.391.73 42.485.743 49.956 6.66 8.847 7.007 11.703 21.156 6.412 31.772-2.977 5.975-6.87 9.572-13.922 12.865-4.987 2.329-5.111 2.335-46.667 2.345-38.738.009-41.979-.124-46.103-1.891-6.186-2.652-11.403-7.527-14.457-13.509-2.234-4.374-2.585-6.286-2.495-13.59.097-7.927-.077-8.692-2.587-11.342-3.134-3.309-9.233-6.658-12.125-6.658-4.659 0-8.014 14.742-6.103 26.818 2.854 18.041 14.233 31.86 31.618 38.4 5.838 2.196 6.558 2.224 52.419 2.045l46.5-.181 7.122-2.596c13.011-4.742 23.738-15.963 28.539-29.854 3.879-11.224 1.917-27.997-4.57-39.066-2.969-5.067-11.599-13.323-17.591-16.829-9.324-5.455-12.465-5.747-60.46-5.621l-46.04.597M178.532 399.31c-2.711 4.138-4.51 12.032-4.521 19.835-.027 19.177 10.906 36.138 28.803 44.685l7.686 3.67 47.612.278c30.112.175 48.581-.091 50.25-.726 1.522-.578 2.617-1.753 2.589-2.777-.027-.976-3.85-5.825-8.496-10.775l-8.446-9-39.255-.5c-42.981-.547-42.163-.433-49.096-6.864-5.271-4.89-7.121-9.761-7.265-19.136l-.262-9.673c-.211-1.89-6.042-7.241-10.207-9.366-5.036-2.569-7.541-2.476-9.392.349m.505 1.621c-2.351 4.393-4.178 15.55-3.527 21.538 2.193 20.167 12.823 34.229 31.067 41.096l6.597 2.483 45.663.226c43.07.213 51.748-.162 50.984-2.206-.177-.472-3.989-4.73-8.472-9.463L293.198 446l-37.849-.01c-37.724-.01-37.865-.017-42.849-2.377-10.614-5.027-15.444-13.347-15.478-26.667-.021-8.326-.108-8.637-3.272-11.699-3.229-3.125-9.317-6.247-12.183-6.247-.823 0-1.962.869-2.53 1.931" fill="#717171"/><path d="M248 33.504c-7.364 2.013-18.964 7.917-23.964 12.197-7.209 6.17-14.286 17.409-18.136 28.799-2.076 6.141-1.794 26.393.487 35 2.453 9.257 10.124 25.075 16.974 35C242.603 172.384 243 173.235 243 186.674c0 9.34-3.247 30.589-5.498 35.976-1.179 2.821-1.911 3.35-4.635 3.35-1.78 0-5.935.757-9.235 1.683-10.67 2.994-15.525 10.158-14.462 21.343l.33 3.474h53 53l-.067-6.506c-.113-10.997-6.077-16.964-19.154-19.161-7.216-1.212-7.63-1.428-8.992-4.689-4.402-10.535-6.066-39.305-2.843-49.144 2.137-6.521 3.586-9.021 13.63-23.5 15.441-22.26 20.569-33.673 22.853-50.86 2.479-18.658-2.911-35.389-15.743-48.873C293.841 37.848 282.564 32.97 265 32.384c-8.172-.272-13.092.052-17 1.12m5.024 19.036c-14.959 4.193-25.712 16.005-29.004 31.861-2.907 14.008 4.007 30.553 16.309 39.026 6.323 4.354 15.951 7.573 22.655 7.573 7.057 0 17.015-3.445 23.195-8.023 11.579-8.579 18.485-24.977 15.935-37.836-2.735-13.789-13.054-26.73-24.828-31.135-7.606-2.846-17.26-3.429-24.262-1.466m-.524 4.518c-10.08 2.95-20.104 12.837-23.26 22.942-6.454 20.663 5.625 41.16 26.863 45.589 6.586 1.373 8.028 1.372 14.123-.004 21.068-4.758 33.168-25.891 26.416-46.138-3.333-9.994-13.48-19.64-23.628-22.46-4.255-1.182-16.375-1.14-20.514.071m7.843 11.978c-.582 2.911-.798 3.025-5.225 2.75-4.129-.256-4.652-.048-4.937 1.962-.237 1.668.37 2.511 2.351 3.264 1.803.686 2.48 1.514 2.084 2.547C254.02 81.112 250 96.915 250 97.705c0 .236-.836.164-1.859-.16-2.225-.706-4.448 1.622-3.961 4.149.207 1.079 1.533 2.005 3.332 2.33 2.733.493 2.964.846 2.709 4.139-.201 2.606.179 3.777 1.377 4.236 2.083.8 4.402-1.056 4.402-3.521 0-1.033.45-1.878 1-1.878s1 1.575 1 3.5.188 3.5.418 3.5 1.085.256 1.9.569c1.037.398 1.835-.503 2.659-3 1.011-3.063 1.513-3.484 3.547-2.974 3.634.912 8.855-1.274 10.765-4.507 2.106-3.565 2.215-8.425.225-10.076-1.3-1.079-1.238-1.547.5-3.757C279.106 88.866 280 86.502 280 85c0-3.087-3.132-7.59-5.888-8.464-1.375-.437-1.808-1.51-1.724-4.276.151-4.965-2.928-5.878-4.511-1.338-1.361 3.905-3.327 4.078-2.556.224.589-2.946-.713-5.146-3.046-5.146-.729 0-1.598 1.366-1.932 3.036m2.264 12.546c-1.294 3.371-.614 5.378 2.048 6.046 5.57 1.398 8.375-3.527 3.457-6.07-3.789-1.959-4.746-1.955-5.505.024m-2.618 11.931c-.623.751-.988 2.631-.811 4.177.288 2.51.758 2.842 4.408 3.11 5.271.386 7.592-1.841 4.955-4.755-2.603-2.876-7.149-4.222-8.552-2.532M139.314 263.95c-1.753 1.069-3.673 2.852-4.267 3.963-.715 1.335-.991 10.596-.814 27.303l.267 25.284h128 128l.258-23.5c.29-26.357-.118-28.363-6.656-32.73l-3.398-2.27-119.102.004c-116.169.003-119.18.051-122.288 1.946m4.357 68.713c-.369.369-.671 3.953-.671 7.965 0 12.464-6.63 11.369 68.939 11.388l114.1.634 49.539.617 2.906-2.499c2.739-2.356 2.908-2.952 2.961-10.384l.055-7.884-118.579-.254c-65.219-.14-118.881.048-119.25.417m-53.233 41.372c-7.849 2.489-17.123 8.524-21.72 14.133-2.003 2.445-5.122 7.57-6.93 11.389-3.172 6.698-3.288 7.384-3.286 19.443.001 10.755.325 13.303 2.322 18.252 4.702 11.653 16.259 22.523 28.399 26.712 5.857 2.021 8.718 2.201 42.777 2.691 33.015.476 58.018-.34 59.624-1.945.333-.334-3.15-4.68-7.741-9.658L175.535 446h-37.089c-43.138 0-43.661-.085-52.011-8.435-4.225-4.224-5.387-6.209-6.892-11.766-1.528-5.649-1.626-7.413-.628-11.377 2.484-9.866 7.137-15.704 15.585-19.555 3.675-1.675 7.533-1.823 47.5-1.823 49.489 0 47.93-.234 55.826 8.365 5.906 6.432 7.174 9.954 7.174 19.924 0 7.009.346 8.837 2.095 11.06 2.519 3.202 8.872 6.607 12.33 6.607 3.156 0 4.191-1.929 6.172-11.506 4.577-22.135-8.997-44.846-31.885-53.345-5.618-2.086-7.119-2.147-51.5-2.093-42.235.052-46.173.203-51.774 1.979m122.812-1.312c-1.787.222-3.25.919-3.25 1.55s1.932 2.964 4.293 5.187 5.877 5.934 7.812 8.25l3.518 4.21 38.938.633c38.661.628 38.976.65 44.147 3.093 5.687 2.686 10.793 8.302 12.892 14.179.722 2.021 1.332 7.287 1.356 11.702.05 9.145 1.017 11.168 7.202 15.073 2.615 1.65 5.079 2.41 7.164 2.208 2.832-.274 3.364-.853 4.884-5.308 2.107-6.174 2.31-19.974.399-27.15-4.143-15.56-18.807-29.622-34.717-33.289-4.16-.96-87.241-1.256-94.638-.338m118.25-.01c-3.906.94-4.004 2.247-.392 5.224 1.943 1.602 5.412 5.348 7.709 8.325l4.176 5.414 39.061.672c42.391.73 42.485.743 49.956 6.66 8.847 7.007 11.703 21.156 6.412 31.772-2.977 5.975-6.87 9.572-13.922 12.865-4.987 2.329-5.111 2.335-46.667 2.345-38.738.009-41.979-.124-46.103-1.891-6.186-2.652-11.403-7.527-14.457-13.509-2.234-4.374-2.585-6.286-2.495-13.59.097-7.927-.077-8.692-2.587-11.342-3.134-3.309-9.233-6.658-12.125-6.658-4.659 0-8.014 14.742-6.103 26.818 2.854 18.041 14.233 31.86 31.618 38.4 5.838 2.196 6.558 2.224 52.419 2.045l46.5-.181 7.122-2.596c13.011-4.742 23.738-15.963 28.539-29.854 3.879-11.224 1.917-27.997-4.57-39.066-2.969-5.067-11.599-13.323-17.591-16.829-9.324-5.455-12.465-5.747-60.46-5.621l-46.04.597m-152.463 28.218c-2.351 4.393-4.178 15.55-3.527 21.538 2.193 20.167 12.823 34.229 31.067 41.096l6.597 2.483 45.663.226c43.07.213 51.748-.162 50.984-2.206-.177-.472-3.989-4.73-8.472-9.463L293.198 446l-37.849-.01c-37.724-.01-37.865-.017-42.849-2.377-10.614-5.027-15.444-13.347-15.478-26.667-.021-8.326-.108-8.637-3.272-11.699-3.229-3.125-9.317-6.247-12.183-6.247-.823 0-1.962.869-2.53 1.931" fill="#060606"/></svg>