<svg xmlns="http://www.w3.org/2000/svg" viewBox="0 0 311.72 311.72"><defs><style>.cls-1,.cls-3{fill:none;}.cls-2{fill:#bbbbbb;}.cls-3{stroke:#bbbbbb;stroke-miterlimit:10;stroke-width:5px;}</style></defs><g id="Layer_2" data-name="Layer 2"><g id="Layer_1-2" data-name="Layer 1"><rect class="cls-1" width="311.72" height="311.72"/><path class="cls-2" d="M157.49,193.46c-22.34,0-44.68,0-67,.06-2.59,0,89.41-6.55,89.46-9.22.13-7.5-93-9.16-92.89-16.66.09-4.52,2.59-6.83,7.15-6.83,42.12,0,27.9,7.74,70,7.77,4.76,0,64-4.84,64.1,0,.11,7.23-40.48.06-40.47,7.29,0,3.32,40.31,18,36.94,18H157.49Z"/><path class="cls-2" d="M156.59,101.66c-2.21,3.77,22.56,4.59,21.37,8.67-1.28,4.35-9,10.76-8.81,15.37.12,4.07,1.2,8.12,1.89,12.18.38,2.27,1.52,3.32,4.07,3.46,6.57.35,10.93,3.67,11.95,8.6.05.27.1.54.14.82.7,5.23.29,5.7-5,5.7q-12.36,0-24.72,0v-.36c-8.69,0-17.39-.07-26.08.05-2.69,0,9.42-4.85,9.53-7.42.29-6.7,11-5.7,18.64-6.21,2.86-.19-10.19-11.27-9.81-13.91.8-5.6,10.63-7.57,11.22-13.2-.34-5.14-17-11.84-20.74-17.91"/><path class="cls-2" d="M119.59,272.47a35.68,35.68,0,0,1-5.45.94c-15.19.06-12.06-6.08-27.24-6.56-12.68-.39-41.27-5.52-41.93-18.2-.59-11.45,3.41-18.1,14.81-21.77,1.63-.52,17.1,7.4,32.17-.58,15.74-.09,7.69-5.11,23.43-4.87,5.47.08,10.13,3,14.18,6.57,7.7,6.79,10.54,18.47,7.1,28.15-.78,2.19-1.92,2.85-4.14,2.11-4.64-1.55-6.88-4.45-6.25-9.16,1.14-8.48-6.67-16.46-15-16.24-13.36.36-26.73.09-40.1.1a14.33,14.33,0,0,0-14.44,14.21,14.63,14.63,0,0,0,14.33,14.75q18.26.16,36.52.16a5.45,5.45,0,0,1,4.84,2.38C114.45,267.12,116.86,269.46,119.59,272.47Z"/><path class="cls-2" d="M193.18,222.37a27,27,0,0,1,4.64-.9c15.84,0,18,4.51,33.87,4.76,10,.16,25.91-.19,27.52,10.49,14.82,2.71,5.72,23.3-8.33,26.66-.88.21-5.65,10.11-6.56,10.11-14.19,0-11.55-4.35-25.73-4-18.06.42-47.77-12.56-42.89-29.65,1.08-3.76,2.36-4.44,5.94-2.74,4.07,1.93,5.35,4.18,4.91,8.62A14.67,14.67,0,0,0,201.19,262q20.06,0,40.1,0A14.58,14.58,0,0,0,256,247.3,14.28,14.28,0,0,0,241.44,233c-12.17-.1-24.35-.28-36.52-.33a5.22,5.22,0,0,1-4.56-2.35C198.37,227.7,196,225.42,193.18,222.37Z"/><path class="cls-2" d="M157.79,198.68c20.6,0,3.17,6.67,23.76,6.69,4.25,0,42.28-6.63,42.2-2.38,0,1.19,0,2.38-.16,3.56a3.88,3.88,0,0,1-4.2,3.81c-3.3,0-6.59,0-9.89,0-34.78,0-63.11,1.11-97.89,1.06-2.93,0,55.16-7.8,52.23-7.91-2.65-.09-71.4,4.89-71.7,2.35-.82-6.78-.73-7,6.06-7q29.79,0,59.59,0Z"/><path class="cls-2" d="M128.22,222.27a27,27,0,0,1,4-.73c15.56-.12,7.59,13.3,34.58,5.35,16.78.53,40.49,13.31,34.7,29.1-1,2.72-1.9,3.15-4.55,2.18-4.31-1.58-6.22-4.42-6-8.86.54-10.08-5.36-16.32-15.45-16.36-11.63,0-23.26-.16-34.89-.11a6,6,0,0,1-5.1-2.53C133.43,227.72,131.05,225.34,128.22,222.27Z"/><path class="cls-2" d="M186,273.86a58.75,58.75,0,0,1-6.74.85c-15.11.06-23-8.09-38.05-8.81-10.48-.49-27.17-.64-29.5-11.62a26.28,26.28,0,0,1,.92-14.61c.77-2.12,2-2.58,4-1.89,4.73,1.59,6.63,4.28,6.37,9.33-.5,9.55,5.73,16.06,15.3,16.07,11.54,0,23.08.15,34.61.1a6.7,6.7,0,0,1,6,2.89C180.86,268.69,183.23,270.85,186,273.86Z"/><path class="cls-3" d="M177.56,79.57l12.83,4.07q-2.94,10.73-9.81,15.93t-17.42,5.21q-13,0-21.46-8.92t-8.4-24.39q0-16.35,8.45-25.41T164,37q12,0,19.54,7.11,4.47,4.2,6.7,12.07l-13.1,3.13a13.56,13.56,0,0,0-13.81-11,14.93,14.93,0,0,0-11.83,5.24q-4.53,5.22-4.53,16.94,0,12.44,4.47,17.71A14.52,14.52,0,0,0,163,93.47a13.3,13.3,0,0,0,9.08-3.35Q175.9,86.76,177.56,79.57Z"/></g></g></svg>