<svg xmlns="http://www.w3.org/2000/svg" viewBox="0 0 224.44 224.44"><defs><style>.cls-1{fill:none;}.cls-2{fill:lime;}.cls-3{fill:blue;}.cls-4{fill:red;}</style></defs><g id="Layer_2" data-name="Layer 2"><g id="Layer_1-2" data-name="Layer 1"><rect class="cls-1" width="224.44" height="224.44"/><path class="cls-2" d="M145.67,106.72c-19.25,0-38.5,0-57.76,0-2.23,0-3.1-.61-3.06-2.91.12-6.46,0-12.93.11-19.4.08-3.9,2.24-5.88,6.17-5.88q54.44,0,108.89,0c4.1,0,6.63,2.5,6.7,6.64.09,6.23.06,12.47.07,18.7,0,2.86-.21,3.06-3.12,3.06q-29,0-58,0Z"/><path class="cls-3" d="M76,200.81a30.58,30.58,0,0,1-4.69.82c-13.1.05-26.21.34-39.29-.07-10.93-.35-19.77-10.35-20.33-21.28a22.75,22.75,0,0,1,15.58-22.64,15.06,15.06,0,0,1,4.39-.81c13.57-.07,27.14-.21,40.71,0,4.72.07,8.73,2.59,12.23,5.67a22.9,22.9,0,0,1,6.11,24.26c-.67,1.89-1.65,2.46-3.57,1.82-4-1.33-5.93-3.83-5.38-7.9,1-7.3-5.75-14.19-12.92-14-11.51.31-23,.07-34.56.08A12.37,12.37,0,0,0,21.83,179a12.61,12.61,0,0,0,12.35,12.71q15.75.15,31.49.14a4.69,4.69,0,0,1,4.17,2.06C71.57,196.2,73.65,198.22,76,200.81Z"/><path class="cls-3" d="M158.38,187.62a23.13,23.13,0,0,1-.78-4c0-13.65-.16-27.31.06-41,.13-8.6,9.15-17.7,18.36-19.09a22.82,22.82,0,0,1,26.14,17.62,10.85,10.85,0,0,1,.28,2.34c0,12.23-.18,24.46.1,36.69a22.77,22.77,0,0,1-29.12,22.45c-3.24-.92-3.83-2-2.36-5.12,1.67-3.51,3.61-4.61,7.44-4.23a12.64,12.64,0,0,0,14-12.61q0-17.29,0-34.57a12.58,12.58,0,0,0-12.6-12.67A12.3,12.3,0,0,0,167.5,146c-.09,10.49-.25,21-.29,31.48a4.51,4.51,0,0,1-2,3.93C163,183.14,161,185.19,158.38,187.62Z"/><path class="cls-3" d="M83.68,122.13h53.26c3.66,0,3.66.05,3.59,3.71,0,1,0,2.06-.13,3.07a3.34,3.34,0,0,1-3.62,3.28c-2.84.05-5.68,0-8.53,0l-89.95-.1c-2.52,0-5-.12-7.57-.21-2.28-.08-3.37-1.38-3.64-3.57-.7-5.85-.62-6,5.23-6q25.68,0,51.36,0Z"/><path class="cls-3" d="M83.44,157.55a24,24,0,0,1,3.47-.63c13.42-.11,26.85-.55,40.25-.13,14.45.45,24.46,16.21,19.46,29.82-.86,2.35-1.63,2.72-3.92,1.88-3.71-1.36-5.36-3.81-5.15-7.64.46-8.68-4.63-14.06-13.33-14.09-10,0-20-.15-30.07-.1a5.14,5.14,0,0,1-4.39-2.18C87.93,162.24,85.88,160.2,83.44,157.55Z"/><path class="cls-3" d="M132.14,201a50.42,50.42,0,0,1-5.8.73c-13,.05-26.08.47-39.07-.14-9-.43-17.15-8-19.16-17.47a22.62,22.62,0,0,1,.79-12.59c.67-1.83,1.68-2.22,3.45-1.63,4.08,1.37,5.71,3.69,5.49,8-.43,8.24,4.93,13.84,13.18,13.85,10,0,19.9.13,29.84.09a5.76,5.76,0,0,1,5.2,2.49A89.82,89.82,0,0,0,132.14,201Z"/><path class="cls-4" d="M52,34.27A14.92,14.92,0,1,0,66.9,49.19,14.92,14.92,0,0,0,52,34.27Zm6.27,20.64a6,6,0,0,1-2.36,1.86,8.8,8.8,0,0,1-3.58.63A10.49,10.49,0,0,1,48,56.64a7,7,0,0,1-2.89-2.7A9.17,9.17,0,0,1,43.89,49,8.4,8.4,0,0,1,46,42.81a8.12,8.12,0,0,1,6-2.16,8.18,8.18,0,0,1,4.81,1.24,7.24,7.24,0,0,1,2.6,3.8l-4.42,1a3.68,3.68,0,0,0-.49-1.08,2.86,2.86,0,0,0-1-.88,3.16,3.16,0,0,0-4,1.06A5.77,5.77,0,0,0,48.91,49a6.12,6.12,0,0,0,.81,3.69,2.83,2.83,0,0,0,2.3,1,2.78,2.78,0,0,0,2.17-.81,5,5,0,0,0,1.07-2.34l4.39,1.32A8.15,8.15,0,0,1,58.25,54.91Z"/><path class="cls-4" d="M38.07,81.12c3,4.33,5,8.8,4.44,14.08-.24,2.31-.55,4.61-.88,6.91H61.84c-.1-.81-.17-1.63-.2-2.44-.12-4-.11-8.15,1-11.9,1-3.51,3.53-6.6,5.43-9.85,3-5.15,6.65-10,9-15.47,5.61-12.8,3.11-25.33-6.11-34.19-12.25-11.77-33.46-9.13-42.45,5.28-6.13,9.81-5.79,20.09-1.19,30.1C30.18,69.81,34.18,75.5,38.07,81.12ZM52.29,30.29c10.23.19,18.71,8.79,18.58,18.87C70.75,59.47,62,68.07,51.9,67.9a18.81,18.81,0,0,1,.39-37.61Z"/><path class="cls-2" d="M195.37,53.28c-.88-4.25-4.64-7.11-10.3-7.41-2.2-.12-3.18-1-3.51-3-.59-3.49-1.52-7-1.63-10.49,0-1-.05-2-.05-3H160.64c-.51,4.37-1.22,8.71-1.85,13.07-.33,2.27-1.49,3.22-4,3.38-6.61.44-10.08,4-10.33,9.75-.09,2.22.61,3.11,2.93,3.08,7.49-.1,15,0,22.48,0v.31h21.31c4.52,0,4.87-.4,4.27-4.92C195.46,53.75,195.41,53.52,195.37,53.28Z"/></g></g></svg>