<svg xmlns="http://www.w3.org/2000/svg" viewBox="0 0 224.44 224.44"><defs><style>.cls-1{fill:none;}.cls-2{fill:#f90;}.cls-3{fill:red;}</style></defs><g id="Layer_2" data-name="Layer 2"><g id="Layer_1-2" data-name="Layer 1"><rect class="cls-1" width="224.44" height="224.44"/><path class="cls-2" d="M169.18,140.36a31.59,31.59,0,0,1,3.83,2.82c9.11,9.41,18.4,18.67,27.17,28.39,7.32,8.12,6.23,21.42-1.27,29.4a22.75,22.75,0,0,1-27.12,4.44,14.88,14.88,0,0,1-3.62-2.6c-9.46-9.74-19-19.44-28.21-29.36-3.22-3.45-4.19-8.09-4.38-12.74a22.89,22.89,0,0,1,13.26-21.22c1.83-.83,2.92-.51,3.79,1.31,1.8,3.81,1.34,6.94-2,9.36-5.95,4.35-6.25,14-1.15,19,8.2,8.09,16,16.56,24,24.87a12.37,12.37,0,0,0,17.46.49,12.61,12.61,0,0,0,.61-17.71q-10.8-11.46-21.7-22.81a4.67,4.67,0,0,1-1.41-4.43C168.92,146.75,168.93,143.85,169.18,140.36Z"/><path class="cls-2" d="M55.17,84.13a23.39,23.39,0,0,1-3.33-2.34C42.36,72,32.81,62.2,23.52,52.21c-5.86-6.29-5.66-19.11,0-26.48a22.81,22.81,0,0,1,31.06-5.4,10.39,10.39,0,0,1,1.82,1.49c8.49,8.8,16.81,17.77,25.49,26.39a22.79,22.79,0,0,1-5.45,36.37c-3,1.57-4.17,1.19-5.25-2.06-1.23-3.68-.6-5.82,2.43-8.2A12.65,12.65,0,0,0,75,55.52Q63,43.06,51,30.62a12.58,12.58,0,0,0-17.87-.42,12.3,12.3,0,0,0-.23,17.61c7.2,7.63,14.36,15.31,21.59,22.91A4.48,4.48,0,0,1,55.79,75C55.38,77.73,55.39,80.56,55.17,84.13Z"/><path class="cls-2" d="M93.89,124.58A23.05,23.05,0,0,1,91,122.51c-9.37-9.6-19-19-28-28.94-9.69-10.74-5.25-28.87,8-34.69,2.28-1,3.08-.71,4.06,1.52,1.6,3.62,1,6.51-1.93,9-6.59,5.68-6.94,13.08-.94,19.37C79.2,96,86.06,103.34,93,110.54a5.16,5.16,0,0,1,1.47,4.68C94.16,118.09,94.11,121,93.89,124.58Z"/><path class="cls-2" d="M132.14,166.73a25.16,25.16,0,0,1-2.86-2.06c-9.37-9.61-19-19-28-28.94-9.68-10.75-5.25-28.88,8-34.7,2.29-1,3.09-.71,4.07,1.53,1.59,3.61,1,6.5-1.94,9-6.58,5.68-6.93,13.07-.94,19.37,6.92,7.25,13.79,14.56,20.76,21.76a5.12,5.12,0,0,1,1.47,4.68C132.42,160.24,132.36,163.14,132.14,166.73Z"/><path class="cls-2" d="M91.47,59.39A52,52,0,0,1,96,63.06c9,9.36,18.39,18.48,27,28.28,5.95,6.81,6.1,17.92.67,25.92a22.6,22.6,0,0,1-9.63,8.15c-1.78.79-2.76.33-3.56-1.36-1.84-3.89-1.3-6.68,2-9.53,6.23-5.4,6.56-13.14.86-19.1C106.43,88.23,99.62,81,92.7,73.84a5.74,5.74,0,0,1-1.8-5.48C91.34,65.69,91.27,62.93,91.47,59.39Z"/><path class="cls-2" d="M130.56,101.45a52.23,52.23,0,0,1,4.55,3.68c9.06,9.36,18.4,18.48,27,28.28,6,6.81,6.1,17.91.67,25.92a22.57,22.57,0,0,1-9.63,8.14c-1.78.8-2.77.33-3.56-1.35-1.84-3.89-1.3-6.68,2-9.53,6.24-5.4,6.57-13.15.86-19.1-6.88-7.19-13.68-14.44-20.6-21.58a5.77,5.77,0,0,1-1.81-5.48A88,88,0,0,0,130.56,101.45Z"/><path class="cls-3" d="M63.49,144.33A31.69,31.69,0,0,1,64.3,149c0,13.1.34,26.21-.07,39.29-.34,10.94-10.34,19.77-21.27,20.33a22.76,22.76,0,0,1-22.65-15.58,15,15,0,0,1-.8-4.39c-.08-13.57-.22-27.14,0-40.71.07-4.72,2.58-8.73,5.66-12.23a22.91,22.91,0,0,1,24.27-6.11c1.88.67,2.45,1.65,1.81,3.57-1.33,4-3.83,5.93-7.89,5.38-7.31-1-14.19,5.75-14,12.92.31,11.51.08,23,.08,34.56A12.37,12.37,0,0,0,41.68,198.5a12.61,12.61,0,0,0,12.71-12.35q.15-15.75.14-31.49a4.69,4.69,0,0,1,2.06-4.17C58.87,148.76,60.9,146.68,63.49,144.33Z"/><path class="cls-3" d="M20.31,80.9a23.93,23.93,0,0,1-.78-4c0-13.65-.16-27.3.06-40.95.13-8.6,9.16-17.7,18.36-19.09A22.82,22.82,0,0,1,64.09,34.48a10.26,10.26,0,0,1,.28,2.34c0,12.23-.18,24.47.1,36.69A22.78,22.78,0,0,1,35.35,96c-3.24-.93-3.82-2-2.36-5.13,1.67-3.5,3.61-4.61,7.44-4.22A12.66,12.66,0,0,0,54.43,74q0-17.28,0-34.56A12.55,12.55,0,0,0,41.8,26.77,12.29,12.29,0,0,0,29.43,39.3c-.09,10.5-.25,21-.29,31.49a4.5,4.5,0,0,1-2,3.92C24.9,76.43,22.94,78.48,20.31,80.9Z"/><path class="cls-3" d="M20.22,136.89a24,24,0,0,1-.63-3.47c-.1-13.42-.55-26.84-.13-40.25.45-14.45,16.21-24.46,29.82-19.46,2.35.86,2.72,1.63,1.88,3.92-1.36,3.71-3.8,5.36-7.64,5.16-8.68-.47-14.06,4.62-14.09,13.32,0,10-.14,20-.1,30.07a5.14,5.14,0,0,1-2.18,4.39C24.92,132.4,22.87,134.45,20.22,136.89Z"/><path class="cls-3" d="M63.13,88.05a50.47,50.47,0,0,1,.74,5.8c.05,13,.47,26.07-.14,39.07-.43,9-8,17.15-17.47,19.16a22.62,22.62,0,0,1-12.59-.79c-1.83-.67-2.22-1.68-1.63-3.45,1.37-4.08,3.69-5.72,8-5.49,8.23.43,13.84-4.94,13.85-13.18,0-9.95.13-19.9.08-29.84a5.77,5.77,0,0,1,2.5-5.2A87.88,87.88,0,0,0,63.13,88.05Z"/><path class="cls-3" d="M204.18,143.53a30,30,0,0,1,.81,4.69c.06,13.09.34,26.2-.07,39.29-.34,10.93-10.34,19.76-21.27,20.33A22.77,22.77,0,0,1,161,192.25a15,15,0,0,1-.8-4.39c-.08-13.57-.22-27.14,0-40.71.07-4.72,2.58-8.73,5.66-12.22a22.9,22.9,0,0,1,24.27-6.12c1.88.67,2.45,1.65,1.81,3.57-1.33,4-3.83,5.93-7.89,5.38-7.31-1-14.19,5.75-14,12.92.31,11.51.08,23,.08,34.56a12.37,12.37,0,0,0,12.25,12.45,12.61,12.61,0,0,0,12.71-12.35q.15-15.74.15-31.48a4.64,4.64,0,0,1,2.05-4.17C199.57,148,201.59,145.87,204.18,143.53Z"/><path class="cls-3" d="M161,80.09a23.93,23.93,0,0,1-.78-4c0-13.65-.16-27.3.06-40.95.14-8.59,9.16-17.69,18.36-19.08a22.82,22.82,0,0,1,26.14,17.62,9.59,9.59,0,0,1,.28,2.33c0,12.23-.18,24.47.1,36.69A22.78,22.78,0,0,1,176,95.16c-3.24-.93-3.82-2-2.36-5.12,1.67-3.51,3.61-4.61,7.44-4.23a12.65,12.65,0,0,0,14-12.62q0-17.28,0-34.56A12.56,12.56,0,0,0,182.49,26,12.3,12.3,0,0,0,170.12,38.5c-.09,10.49-.25,21-.29,31.48a4.47,4.47,0,0,1-2,3.92C165.59,75.62,163.63,77.67,161,80.09Z"/><path class="cls-3" d="M160.91,136.08a24,24,0,0,1-.63-3.47c-.1-13.41-.55-26.84-.13-40.24.46-14.46,16.21-24.46,29.82-19.47,2.35.86,2.72,1.63,1.88,3.92-1.36,3.71-3.8,5.36-7.64,5.16-8.68-.47-14.06,4.63-14.09,13.32,0,10-.14,20-.1,30.07a5.16,5.16,0,0,1-2.18,4.4C165.61,131.59,163.56,133.65,160.91,136.08Z"/><path class="cls-3" d="M204.32,87.38a52.94,52.94,0,0,1,.74,5.81c0,13,.47,26.07-.15,39.06-.43,9-8,17.15-17.47,19.16a22.53,22.53,0,0,1-12.59-.79c-1.83-.66-2.22-1.68-1.63-3.45,1.37-4.08,3.7-5.71,8-5.49,8.24.43,13.84-4.93,13.85-13.18,0-10,.13-19.89.09-29.84a5.77,5.77,0,0,1,2.49-5.2A85.77,85.77,0,0,0,204.32,87.38Z"/></g></g></svg>