<svg xmlns="http://www.w3.org/2000/svg" viewBox="0 0 311.72 311.72"><defs><style>.cls-1{fill:none;}.cls-2{fill:#bbbbbb;}</style></defs><g id="Layer_2" data-name="Layer 2"><g id="Layer_1-2" data-name="Layer 1"><rect class="cls-1" width="311.72" height="311.72"/><path class="cls-2" d="M212.81,184a29.09,29.09,0,0,1,3.84,2.82c9.11,9.41,18.4,18.66,27.16,28.39,7.33,8.12,6.23,21.42-1.26,29.4a22.76,22.76,0,0,1-27.12,4.44,15,15,0,0,1-3.63-2.61c-9.45-9.73-19-19.43-28.2-29.36-3.22-3.45-4.19-8.08-4.39-12.74a22.92,22.92,0,0,1,13.27-21.22c1.82-.82,2.92-.5,3.78,1.32,1.81,3.81,1.35,6.93-2,9.35-6,4.35-6.26,14-1.15,19,8.19,8.08,16,16.56,24,24.86a12.35,12.35,0,0,0,17.45.5,12.61,12.61,0,0,0,.62-17.71q-10.8-11.46-21.71-22.81a4.66,4.66,0,0,1-1.4-4.43C212.55,190.39,212.57,187.48,212.81,184Z"/><path class="cls-2" d="M98.81,127.77a23.36,23.36,0,0,1-3.33-2.35c-9.49-9.82-19-19.58-28.33-29.57-5.85-6.3-5.65-19.11,0-26.49A22.84,22.84,0,0,1,98.24,64a10.38,10.38,0,0,1,1.81,1.5c8.5,8.8,16.82,17.77,25.49,26.39a22.77,22.77,0,0,1-5.45,36.36c-3,1.58-4.16,1.19-5.25-2.05-1.22-3.69-.59-5.83,2.44-8.2a12.65,12.65,0,0,0,1.36-18.8q-12-12.48-24-24.91a12.57,12.57,0,0,0-17.86-.41,12.3,12.3,0,0,0-.24,17.61c7.21,7.63,14.36,15.31,21.6,22.91a4.47,4.47,0,0,1,1.26,4.23C99,121.36,99,124.2,98.81,127.77Z"/><path class="cls-2" d="M137.53,168.21a22.15,22.15,0,0,1-2.86-2.06c-9.37-9.61-19-19-28-28.94-9.68-10.74-5.24-28.87,8-34.7,2.29-1,3.09-.7,4.07,1.53,1.59,3.62,1,6.5-1.93,9-6.59,5.68-6.94,13.08-.94,19.37,6.91,7.26,13.78,14.56,20.76,21.76a5.18,5.18,0,0,1,1.47,4.68C137.8,161.72,137.75,164.62,137.53,168.21Z"/><path class="cls-2" d="M175.78,210.37a23.05,23.05,0,0,1-2.86-2.07c-9.37-9.6-19-19-28-28.94-9.69-10.74-5.25-28.87,8-34.69,2.28-1,3.08-.71,4.06,1.52,1.6,3.62,1,6.51-1.93,9-6.59,5.68-6.94,13.08-.94,19.37,6.92,7.26,13.78,14.56,20.76,21.76A5.16,5.16,0,0,1,176.4,201C176.05,203.88,176,206.77,175.78,210.37Z"/><path class="cls-2" d="M135.1,103a50.43,50.43,0,0,1,4.55,3.68c9.06,9.36,18.4,18.48,27,28.28,5.95,6.81,6.1,17.91.67,25.91a22.59,22.59,0,0,1-9.63,8.15c-1.78.79-2.77.33-3.56-1.36-1.84-3.88-1.3-6.67,2-9.52,6.24-5.4,6.57-13.15.86-19.11-6.88-7.18-13.68-14.43-20.6-21.58a5.76,5.76,0,0,1-1.81-5.48A87.8,87.8,0,0,0,135.1,103Z"/><path class="cls-2" d="M174.2,145.09a51.9,51.9,0,0,1,4.55,3.68c9.05,9.36,18.4,18.48,26.95,28.28,6,6.81,6.11,17.91.67,25.91a22.51,22.51,0,0,1-9.62,8.15c-1.78.79-2.77.33-3.57-1.36-1.84-3.88-1.29-6.67,2-9.52,6.23-5.4,6.56-13.15.86-19.11-6.88-7.18-13.69-14.43-20.61-21.58a5.75,5.75,0,0,1-1.8-5.48A87.8,87.8,0,0,0,174.2,145.09Z"/><path class="cls-2" d="M107.12,188a30.58,30.58,0,0,1,.82,4.69c0,13.1.34,26.21-.07,39.29-.35,10.93-10.35,19.77-21.28,20.33A22.76,22.76,0,0,1,64,236.7a15.06,15.06,0,0,1-.81-4.39c-.07-13.57-.21-27.15,0-40.72.07-4.71,2.59-8.73,5.67-12.22a22.9,22.9,0,0,1,24.26-6.12c1.89.67,2.46,1.66,1.82,3.57-1.34,4-3.83,5.93-7.9,5.39-7.3-1-14.19,5.75-14,12.91.31,11.52.07,23,.08,34.56a12.36,12.36,0,0,0,12.25,12.45A12.6,12.6,0,0,0,98,229.78q.15-15.74.14-31.48a4.69,4.69,0,0,1,2.06-4.17C102.51,192.4,104.53,190.32,107.12,188Z"/><path class="cls-2" d="M64,124.54a23.13,23.13,0,0,1-.78-4c0-13.65-.16-27.31.06-40.95.13-8.6,9.15-17.7,18.35-19.09a22.83,22.83,0,0,1,26.15,17.62,10.25,10.25,0,0,1,.27,2.34c0,12.23-.18,24.46.11,36.69A22.78,22.78,0,0,1,79,139.6c-3.24-.92-3.83-2-2.36-5.12,1.66-3.51,3.61-4.61,7.44-4.23a12.63,12.63,0,0,0,14-12.62q0-17.28,0-34.56A12.58,12.58,0,0,0,85.43,70.4,12.3,12.3,0,0,0,73.07,82.94c-.09,10.49-.25,21-.29,31.48a4.49,4.49,0,0,1-2,3.93C68.53,120.06,66.58,122.11,64,124.54Z"/><path class="cls-2" d="M63.86,180.53a22.87,22.87,0,0,1-.63-3.47c-.11-13.42-.56-26.85-.13-40.25.45-14.46,16.21-24.46,29.82-19.47,2.35.86,2.71,1.63,1.88,3.92-1.36,3.71-3.81,5.37-7.64,5.16-8.68-.46-14.06,4.63-14.1,13.32,0,10-.14,20-.09,30.08a5.16,5.16,0,0,1-2.18,4.39C68.55,176,66.51,178.09,63.86,180.53Z"/><path class="cls-2" d="M106.77,131.69a52.51,52.51,0,0,1,.74,5.8c0,13,.47,26.07-.15,39.07-.42,9-8,17.15-17.47,19.15a22.4,22.4,0,0,1-12.58-.79c-1.83-.66-2.23-1.68-1.63-3.44,1.36-4.08,3.69-5.72,8-5.49,8.24.42,13.84-4.94,13.86-13.19,0-9.94.12-19.89.08-29.84a5.78,5.78,0,0,1,2.49-5.2A85.45,85.45,0,0,0,106.77,131.69Z"/><path class="cls-2" d="M247.81,187.16a30.58,30.58,0,0,1,.82,4.69c.05,13.1.34,26.21-.07,39.29-.35,10.93-10.35,19.77-21.28,20.33a22.75,22.75,0,0,1-22.64-15.58,15.06,15.06,0,0,1-.81-4.39c-.07-13.57-.21-27.14,0-40.71.07-4.72,2.59-8.73,5.67-12.23a22.9,22.9,0,0,1,24.26-6.11c1.89.67,2.46,1.65,1.82,3.57-1.33,4-3.83,5.93-7.9,5.38-7.3-1-14.19,5.75-14,12.92.31,11.51.07,23,.08,34.56A12.37,12.37,0,0,0,226,241.33,12.61,12.61,0,0,0,238.72,229q.15-15.75.14-31.49a4.69,4.69,0,0,1,2.06-4.17C243.2,191.59,245.22,189.51,247.81,187.16Z"/><path class="cls-2" d="M204.64,123.73a23,23,0,0,1-.78-4c0-13.65-.16-27.3.06-40.95.13-8.6,9.15-17.7,18.35-19.09a22.83,22.83,0,0,1,26.15,17.62,10.85,10.85,0,0,1,.28,2.34c0,12.23-.18,24.47.1,36.69a22.78,22.78,0,0,1-29.12,22.45c-3.24-.92-3.83-2-2.36-5.12,1.67-3.5,3.61-4.61,7.44-4.22a12.66,12.66,0,0,0,14-12.62q0-17.28,0-34.57a12.56,12.56,0,0,0-12.6-12.66,12.29,12.29,0,0,0-12.36,12.53c-.09,10.5-.25,21-.29,31.49a4.49,4.49,0,0,1-2,3.92C209.23,119.26,207.27,121.31,204.64,123.73Z"/><path class="cls-2" d="M204.55,179.72a24,24,0,0,1-.63-3.47c-.11-13.42-.55-26.85-.13-40.25.45-14.45,16.21-24.46,29.82-19.46,2.35.86,2.72,1.63,1.88,3.92-1.36,3.71-3.81,5.36-7.64,5.15-8.68-.46-14.06,4.63-14.09,13.33,0,10-.15,20-.1,30.07a5.14,5.14,0,0,1-2.18,4.39C209.24,175.23,207.2,177.28,204.55,179.72Z"/><path class="cls-2" d="M248,131a50.42,50.42,0,0,1,.73,5.8c.05,13,.47,26.08-.14,39.07-.43,9-8,17.15-17.47,19.16a22.62,22.62,0,0,1-12.59-.79c-1.83-.67-2.22-1.68-1.63-3.45,1.37-4.08,3.69-5.71,8-5.49,8.24.43,13.84-4.93,13.85-13.18,0-9.95.13-19.9.09-29.84a5.74,5.74,0,0,1,2.49-5.2A89.82,89.82,0,0,0,248,131Z"/></g></g></svg>